<?xml version="1.0" encoding="UTF-8" standalone="no"?>
<!-- Created with Inkscape (http://www.inkscape.org/) -->

<svg
   width="210mm"
   height="297mm"
   viewBox="0 0 210 297"
   version="1.1"
   id="svg1"
   inkscape:version="1.3.2 (091e20ef0f, 2023-11-25, custom)"
   sodipodi:docname="QR_ewrwc.svg"
   xmlns:inkscape="http://www.inkscape.org/namespaces/inkscape"
   xmlns:sodipodi="http://sodipodi.sourceforge.net/DTD/sodipodi-0.dtd"
   xmlns="http://www.w3.org/2000/svg"
   xmlns:svg="http://www.w3.org/2000/svg">
  <sodipodi:namedview
     id="namedview1"
     pagecolor="#ffffff"
     bordercolor="#000000"
     borderopacity="0.25"
     inkscape:showpageshadow="2"
     inkscape:pageopacity="0.0"
     inkscape:pagecheckerboard="0"
     inkscape:deskcolor="#d1d1d1"
     inkscape:document-units="mm"
     inkscape:zoom="1.6186799"
     inkscape:cx="396.9284"
     inkscape:cy="561.25984"
     inkscape:window-width="3840"
     inkscape:window-height="2088"
     inkscape:window-x="2048"
     inkscape:window-y="0"
     inkscape:window-maximized="1"
     inkscape:current-layer="layer1" />
  <defs
     id="defs1" />
  <g
     inkscape:label="Vrstva 1"
     inkscape:groupmode="layer"
     id="layer1">
    <g
       inkscape:label="QR Code: https://github.com/LosVocelos/EWRWC"
       transform="matrix(1.0751203,0,0,1.0751203,29.515228,65.540449)"
       id="g2">
      <g
         style="fill:#000000;stroke:none"
         id="g1">
        <path
           d="m 127.6,132 h -3.2 c -0.221,0 -0.4,-0.179 -0.4,-0.4 V 124 h 4 v 7.6 c 0,0.221 -0.179,0.4 -0.4,0.4 z m -8,0 H 96.4 c -0.2209,0 -0.4,-0.179 -0.4,-0.4 v -3.2 c 0,-0.221 -0.1791,-0.4 -0.4,-0.4 h -3.2 c -0.2209,0 -0.4,0.179 -0.4,0.4 v 3.2 c 0,0.221 -0.1791,0.4 -0.4,0.4 h -7.2 c -0.2209,0 -0.4,-0.179 -0.4,-0.4 v -3.2 C 84,128.179 83.8209,128 83.6,128 H 80 v -3.6 c 0,-0.221 0.1791,-0.4 0.4,-0.4 h 7.2 c 0.2209,0 0.4,-0.179 0.4,-0.4 v -3.2 c 0,-0.221 -0.1791,-0.4 -0.4,-0.4 h -3.2 c -0.2209,0 -0.4,-0.179 -0.4,-0.4 v -3.2 C 84,116.179 83.8209,116 83.6,116 H 80 v -3.6 c 0,-0.221 -0.1791,-0.4 -0.4,-0.4 h -7.2 c -0.2209,0 -0.4,-0.179 -0.4,-0.4 v -3.2 c 0,-0.221 0.1791,-0.4 0.4,-0.4 h 7.2 c 0.2209,0 0.4,-0.179 0.4,-0.4 v -3.2 c 0,-0.221 -0.1791,-0.4 -0.4,-0.4 h -7.2 c -0.2209,0 -0.4,-0.179 -0.4,-0.4 v -3.2 c 0,-0.221 0.1791,-0.4 0.4,-0.4 h 11.2 c 0.2209,0 0.4,0.179 0.4,0.4 v 3.2 c 0,0.221 0.1791,0.4 0.4,0.4 h 3.2 c 0.2209,0 0.4,0.179 0.4,0.4 v 3.6 h -3.6 c -0.2209,0 -0.4,0.179 -0.4,0.4 v 3.2 c 0,0.221 0.1791,0.4 0.4,0.4 H 88 v 3.6 c 0,0.221 0.1791,0.4 0.4,0.4 h 7.2 c 0.2209,0 0.4,-0.179 0.4,-0.4 V 104.4 C 96,104.179 95.8209,104 95.6,104 H 92.4 C 92.1791,104 92,103.821 92,103.6 V 96.4 C 92,96.1791 92.1791,96 92.4,96 h 3.2 C 95.8209,96 96,95.8209 96,95.6 V 92.4 C 96,92.1791 96.1791,92 96.4,92 h 3.2 c 0.2209,0 0.4,-0.1791 0.4,-0.4 V 88.4 C 100,88.1791 99.8209,88 99.6,88 H 96.4 C 96.1791,88 96,87.8209 96,87.6 V 68.4 C 96,68.1791 95.8209,68 95.6,68 H 92.4 C 92.1791,68 92,67.8209 92,67.6 V 64.4 C 92,64.1791 91.8209,64 91.6,64 H 88 V 60.4 C 88,60.1791 87.8209,60 87.6,60 H 84.4 C 84.1791,60 84,60.1791 84,60.4 V 64 H 80.4 C 80.1791,64 80,63.8209 80,63.6 V 56.4 C 80,56.1791 79.8209,56 79.6,56 H 76 v -4 h 3.6 C 79.8209,52 80,51.8209 80,51.6 V 40.4 C 80,40.1791 79.8209,40 79.6,40 H 76 V 36.4 C 76,36.1791 76.1791,36 76.4,36 h 7.2 C 83.8209,36 84,35.8209 84,35.6 V 32.4 C 84,32.1791 84.1791,32 84.4,32 h 3.2 C 87.8209,32 88,31.8209 88,31.6 V 28.4 C 88,28.1791 87.8209,28 87.6,28 H 84.4 C 84.1791,28 84,27.8209 84,27.6 V 24 h 3.6 C 87.8209,24 88,23.8209 88,23.6 V 20.4 C 88,20.1791 88.1791,20 88.4,20 h 3.2 c 0.2209,0 0.4,0.1791 0.4,0.4 v 3.2 c 0,0.2209 0.1791,0.4 0.4,0.4 H 96 v 3.6 c 0,0.2209 0.1791,0.4 0.4,0.4 h 3.2 c 0.2209,0 0.4,0.1791 0.4,0.4 v 3.2 c 0,0.2209 -0.1791,0.4 -0.4,0.4 H 92.4 C 92.1791,32 92,32.1791 92,32.4 v 3.2 c 0,0.2209 0.1791,0.4 0.4,0.4 h 3.2 c 0.2209,0 0.4,0.1791 0.4,0.4 V 40 H 92.4 C 92.1791,40 92,40.1791 92,40.4 v 3.2 c 0,0.2209 0.1791,0.4 0.4,0.4 h 3.2 C 95.8209,44 96,43.8209 96,43.6 V 40 h 3.6 c 0.2209,0 0.4,0.1791 0.4,0.4 v 7.2 c 0,0.2209 -0.1791,0.4 -0.4,0.4 H 96.4 C 96.1791,48 96,48.1791 96,48.4 V 52 H 92.4 C 92.1791,52 92,51.8209 92,51.6 V 48.4 C 92,48.1791 91.8209,48 91.6,48 H 84.4 C 84.1791,48 84,48.1791 84,48.4 v 3.2 c 0,0.2209 0.1791,0.4 0.4,0.4 h 3.2 c 0.2209,0 0.4,0.1791 0.4,0.4 v 3.2 c 0,0.2209 0.1791,0.4 0.4,0.4 h 7.2 C 95.8209,56 96,55.8209 96,55.6 V 52 h 3.6 c 0.2209,0 0.4,0.1791 0.4,0.4 v 3.2 c 0,0.2209 0.179,0.4 0.4,0.4 h 3.6 v 3.6 c 0,0.2209 -0.179,0.4 -0.4,0.4 H 96.4 C 96.1791,60 96,60.1791 96,60.4 v 3.2 c 0,0.2209 0.1791,0.4 0.4,0.4 h 11.2 c 0.221,0 0.4,0.1791 0.4,0.4 v 3.2 c 0,0.2209 -0.179,0.4 -0.4,0.4 h -3.2 c -0.221,0 -0.4,0.1791 -0.4,0.4 V 72 h -3.6 c -0.221,0 -0.4,0.1791 -0.4,0.4 v 3.2 c 0,0.2209 0.179,0.4 0.4,0.4 h 3.2 c 0.221,0 0.4,-0.1791 0.4,-0.4 V 72 h 27.6 c 0.221,0 0.4,0.1791 0.4,0.4 v 3.2 c 0,0.2209 -0.179,0.4 -0.4,0.4 h -3.2 c -0.221,0 -0.4,0.1791 -0.4,0.4 V 84 h -3.6 c -0.221,0 -0.4,-0.1791 -0.4,-0.4 v -7.2 c 0,-0.2209 -0.179,-0.4 -0.4,-0.4 h -3.2 c -0.221,0 -0.4,0.1791 -0.4,0.4 v 3.2 c 0,0.2209 -0.179,0.4 -0.4,0.4 h -3.2 c -0.221,0 -0.4,-0.1791 -0.4,-0.4 v -3.2 c 0,-0.2209 -0.179,-0.4 -0.4,-0.4 h -7.2 c -0.221,0 -0.4,0.1791 -0.4,0.4 V 80 h -7.6 c -0.221,0 -0.4,0.1791 -0.4,0.4 v 3.2 c 0,0.2209 0.179,0.4 0.4,0.4 h 7.2 c 0.221,0 0.4,-0.1791 0.4,-0.4 V 80 h 3.6 c 0.221,0 0.4,0.1791 0.4,0.4 v 7.2 c 0,0.2209 0.179,0.4 0.4,0.4 h 3.6 v 19.6 c 0,0.221 0.179,0.4 0.4,0.4 h 7.6 v 3.6 c 0,0.221 -0.179,0.4 -0.4,0.4 h -7.2 c -0.221,0 -0.4,0.179 -0.4,0.4 v 3.2 c 0,0.221 0.179,0.4 0.4,0.4 H 128 v 4 h -3.6 c -0.221,0 -0.4,0.179 -0.4,0.4 v 3.6 h -7.6 c -0.221,0 -0.4,0.179 -0.4,0.4 v 3.2 c 0,0.221 0.179,0.4 0.4,0.4 h 3.2 c 0.221,0 0.4,0.179 0.4,0.4 v 3.2 c 0,0.221 -0.179,0.4 -0.4,0.4 z m -40,0 H 68.4 c -0.2209,0 -0.4,-0.179 -0.4,-0.4 v -3.2 C 68,128.179 67.8209,128 67.6,128 H 64 v -7.6 C 64,120.179 63.8209,120 63.6,120 H 60.4 C 60.1791,120 60,119.821 60,119.6 V 116 h 3.6 c 0.2209,0 0.4,-0.179 0.4,-0.4 v -3.2 c 0,-0.221 0.1791,-0.4 0.4,-0.4 h 3.2 c 0.2209,0 0.4,0.179 0.4,0.4 v 11.2 c 0,0.221 0.1791,0.4 0.4,0.4 h 7.2 c 0.2209,0 0.4,0.179 0.4,0.4 v 3.2 c 0,0.221 0.1791,0.4 0.4,0.4 H 80 v 3.6 c 0,0.221 -0.1791,0.4 -0.4,0.4 z m -16,0 H 48.4 c -0.2209,0 -0.4,-0.179 -0.4,-0.4 v -7.2 c 0,-0.221 0.1791,-0.4 0.4,-0.4 h 7.2 c 0.2209,0 0.4,0.179 0.4,0.4 v 3.2 c 0,0.221 0.1791,0.4 0.4,0.4 H 64 v 3.6 c 0,0.221 -0.1791,0.4 -0.4,0.4 z m -20,0 H 16.4 c -0.2209,0 -0.4,-0.179 -0.4,-0.4 v -27.2 c 0,-0.221 0.1791,-0.4 0.4,-0.4 h 27.2 c 0.2209,0 0.4,0.179 0.4,0.4 v 27.2 c 0,0.221 -0.1791,0.4 -0.4,0.4 z m 68.4,-4.4 v -7.2 c 0,-0.221 -0.179,-0.4 -0.4,-0.4 h -7.2 c -0.221,0 -0.4,-0.179 -0.4,-0.4 v -3.2 c 0,-0.221 -0.179,-0.4 -0.4,-0.4 h -3.2 c -0.221,0 -0.4,0.179 -0.4,0.4 v 7.2 c 0,0.221 0.179,0.4 0.4,0.4 h 3.2 c 0.221,0 0.4,0.179 0.4,0.4 v 3.2 c 0,0.221 0.179,0.4 0.4,0.4 h 7.2 c 0.221,0 0.4,-0.179 0.4,-0.4 z m -72,0 V 108.4 C 40,108.179 39.8209,108 39.6,108 H 20.4 c -0.2209,0 -0.4,0.179 -0.4,0.4 v 19.2 c 0,0.221 0.1791,0.4 0.4,0.4 h 19.2 c 0.2209,0 0.4,-0.179 0.4,-0.4 z M 131.6,124 H 128 v -4 h 3.6 c 0.221,0 0.4,0.179 0.4,0.4 v 3.2 c 0,0.221 -0.179,0.4 -0.4,0.4 z m -96,0 H 24.4 c -0.2209,0 -0.4,-0.179 -0.4,-0.4 v -11.2 c 0,-0.221 0.1791,-0.4 0.4,-0.4 h 11.2 c 0.2209,0 0.4,0.179 0.4,0.4 v 11.2 c 0,0.221 -0.1791,0.4 -0.4,0.4 z m 44,-4 h -3.2 c -0.2209,0 -0.4,-0.179 -0.4,-0.4 v -3.2 c 0,-0.221 0.1791,-0.4 0.4,-0.4 H 80 v 3.6 c 0,0.221 -0.1791,0.4 -0.4,0.4 z m -24,0 h -7.2 c -0.2209,0 -0.4,-0.179 -0.4,-0.4 v -3.2 c 0,-0.221 0.1791,-0.4 0.4,-0.4 H 56 v 3.6 c 0,0.221 -0.1791,0.4 -0.4,0.4 z m 76,-4 H 128 v -8 h 3.6 c 0.221,0 0.4,0.179 0.4,0.4 v 7.2 c 0,0.221 -0.179,0.4 -0.4,0.4 z m -72,0 H 56 v -7.6 c 0,-0.221 0.1791,-0.4 0.4,-0.4 h 3.2 c 0.2209,0 0.4,0.179 0.4,0.4 v 7.6 z m 52.4,-4.4 v -11.2 c 0,-0.221 -0.179,-0.4 -0.4,-0.4 h -11.2 c -0.221,0 -0.4,0.179 -0.4,0.4 v 11.2 c 0,0.221 0.179,0.4 0.4,0.4 h 11.2 c 0.221,0 0.4,-0.179 0.4,-0.4 z M 91.6,112 H 88 v -4 h 3.6 c 0.2209,0 0.4,0.179 0.4,0.4 v 3.2 c 0,0.221 -0.1791,0.4 -0.4,0.4 z m 36,-4 H 124 v -3.6 c 0,-0.221 -0.179,-0.4 -0.4,-0.4 h -3.2 c -0.221,0 -0.4,-0.179 -0.4,-0.4 v -7.2 c 0,-0.2209 0.179,-0.4 0.4,-0.4 h 3.6 v 3.6 c 0,0.2209 0.179,0.4 0.4,0.4 h 7.2 c 0.221,0 0.4,0.179 0.4,0.4 v 3.2 c 0,0.221 -0.179,0.4 -0.4,0.4 h -3.2 c -0.221,0 -0.4,0.179 -0.4,0.4 v 3.6 z m -20,0 h -3.2 c -0.221,0 -0.4,-0.179 -0.4,-0.4 v -3.2 c 0,-0.221 0.179,-0.4 0.4,-0.4 h 3.2 c 0.221,0 0.4,0.179 0.4,0.4 v 3.2 c 0,0.221 -0.179,0.4 -0.4,0.4 z m -56,0 H 48.4 C 48.1791,108 48,107.821 48,107.6 V 100 h 4 v 7.6 c 0,0.221 -0.1791,0.4 -0.4,0.4 z m 12,-4 h -7.2 c -0.2209,0 -0.4,-0.179 -0.4,-0.4 v -3.2 C 56,100.179 55.8209,100 55.6,100 H 52 V 96.4 C 52,96.1791 52.1791,96 52.4,96 h 3.2 C 55.8209,96 56,95.8209 56,95.6 V 92.4 C 56,92.1791 56.1791,92 56.4,92 H 60 v 7.6 c 0,0.2209 0.1791,0.4 0.4,0.4 h 3.2 c 0.2209,0 0.4,0.179 0.4,0.4 v 3.2 c 0,0.221 -0.1791,0.4 -0.4,0.4 z m -16,-4 H 40.4 C 40.1791,100 40,99.8209 40,99.6 V 96 h 3.6 C 43.8209,96 44,95.8209 44,95.6 V 92 h 3.6 c 0.2209,0 0.4,0.1791 0.4,0.4 v 7.6 z m -28,0 H 16.4 C 16.1791,100 16,99.8209 16,99.6 V 96.4 C 16,96.1791 16.1791,96 16.4,96 h 3.2 c 0.2209,0 0.4,0.1791 0.4,0.4 v 3.2 c 0,0.2209 -0.1791,0.4 -0.4,0.4 z m 112,-4 H 124 v -7.6 c 0,-0.2209 0.179,-0.4 0.4,-0.4 h 3.2 c 0.221,0 0.4,-0.1791 0.4,-0.4 V 84 h 3.6 c 0.221,0 0.4,0.1791 0.4,0.4 v 11.2 c 0,0.2209 -0.179,0.4 -0.4,0.4 z M 108,95.6 v -7.2 c 0,-0.2209 -0.179,-0.4 -0.4,-0.4 h -3.2 c -0.221,0 -0.4,0.1791 -0.4,0.4 v 7.2 c 0,0.2209 0.179,0.4 0.4,0.4 h 3.2 c 0.221,0 0.4,-0.1791 0.4,-0.4 z M 87.6,96 H 84.4 C 84.1791,96 84,95.8209 84,95.6 V 92.4 C 84,92.1791 84.1791,92 84.4,92 h 3.2 c 0.2209,0 0.4,0.1791 0.4,0.4 v 3.2 c 0,0.2209 -0.1791,0.4 -0.4,0.4 z m -12,0 H 72.4 C 72.1791,96 72,95.8209 72,95.6 V 88.4 C 72,88.1791 71.8209,88 71.6,88 H 68.4 C 68.1791,88 68,88.1791 68,88.4 v 7.2 C 68,95.8209 67.8209,96 67.6,96 H 64.4 C 64.1791,96 64,95.8209 64,95.6 V 92.4 C 64,92.1791 63.8209,92 63.6,92 H 60 V 88.4 C 60,88.1791 60.1791,88 60.4,88 h 3.2 C 63.8209,88 64,87.8209 64,87.6 V 80 h 7.6 c 0.2209,0 0.4,0.1791 0.4,0.4 v 3.2 c 0,0.2209 0.1791,0.4 0.4,0.4 h 7.2 C 79.8209,84 80,83.8209 80,83.6 V 80.4 C 80,80.1791 80.1791,80 80.4,80 h 3.2 C 83.8209,80 84,79.8209 84,79.6 V 76.4 C 84,76.1791 83.8209,76 83.6,76 H 80.4 C 80.1791,76 80,75.8209 80,75.6 V 72 h 3.6 C 83.8209,72 84,71.8209 84,71.6 V 64 h 4 v 11.6 c 0,0.2209 0.1791,0.4 0.4,0.4 h 3.2 c 0.2209,0 0.4,0.1791 0.4,0.4 v 3.2 C 92,79.8209 91.8209,80 91.6,80 H 88.4 C 88.1791,80 88,80.1791 88,80.4 v 7.2 C 88,87.8209 87.8209,88 87.6,88 H 76.4 C 76.1791,88 76,88.1791 76,88.4 v 7.2 c 0,0.2209 -0.1791,0.4 -0.4,0.4 z m -36,0 H 24.4 C 24.1791,96 24,95.8209 24,95.6 V 92.4 C 24,92.1791 24.1791,92 24.4,92 h 3.2 C 27.8209,92 28,91.8209 28,91.6 V 88.4 C 28,88.1791 28.1791,88 28.4,88 H 32 v 3.6 c 0,0.2209 0.1791,0.4 0.4,0.4 h 3.2 C 35.8209,92 36,91.8209 36,91.6 V 88 h 8 v 4 H 40.4 C 40.1791,92 40,92.1791 40,92.4 V 96 Z m -20,-4 H 16.4 C 16.1791,92 16,91.8209 16,91.6 V 88.4 C 16,88.1791 16.1791,88 16.4,88 H 20 v 3.6 c 0,0.2209 -0.1791,0.4 -0.4,0.4 z m 100,-4 H 116 v -3.6 c 0,-0.2209 0.179,-0.4 0.4,-0.4 h 3.2 c 0.221,0 0.4,0.1791 0.4,0.4 v 3.2 c 0,0.2209 -0.179,0.4 -0.4,0.4 z m -64,0 H 44 V 84.4 C 44,84.1791 43.8209,84 43.6,84 H 36 V 80.4 C 36,80.1791 35.8209,80 35.6,80 H 28.4 C 28.1791,80 28,79.8209 28,79.6 V 76.4 C 28,76.1791 28.1791,76 28.4,76 h 3.2 C 31.8209,76 32,75.8209 32,75.6 V 72.4 C 32,72.1791 31.8209,72 31.6,72 H 24 v -4 h 7.6 C 31.8209,68 32,67.8209 32,67.6 V 64.4 C 32,64.1791 31.8209,64 31.6,64 H 24 V 52 h 4 v 3.6 c 0,0.2209 0.1791,0.4 0.4,0.4 H 32 v 3.6 c 0,0.2209 0.1791,0.4 0.4,0.4 H 40 v 4 H 36.4 C 36.1791,64 36,64.1791 36,64.4 v 3.2 c 0,0.2209 0.1791,0.4 0.4,0.4 H 40 v 3.6 c 0,0.2209 0.1791,0.4 0.4,0.4 h 3.2 c 0.2209,0 0.4,0.1791 0.4,0.4 V 76 H 40.4 C 40.1791,76 40,76.1791 40,76.4 v 3.2 c 0,0.2209 0.1791,0.4 0.4,0.4 h 3.2 C 43.8209,80 44,79.8209 44,79.6 V 76 h 3.6 C 47.8209,76 48,75.8209 48,75.6 V 72.4 C 48,72.1791 48.1791,72 48.4,72 H 52 v 8 H 48.4 C 48.1791,80 48,80.1791 48,80.4 v 3.2 c 0,0.2209 0.1791,0.4 0.4,0.4 h 3.2 C 51.8209,84 52,83.8209 52,83.6 V 80 h 8 v 3.6 C 60,83.8209 59.8209,84 59.6,84 H 56.4 C 56.1791,84 56,84.1791 56,84.4 v 3.2 c 0,0.2209 -0.1791,0.4 -0.4,0.4 z m -20,0 H 32 V 84.4 C 32,84.1791 32.1791,84 32.4,84 H 36 v 4 z m -12,0 H 20 v -8 h 3.6 c 0.2209,0 0.4,0.1791 0.4,0.4 v 7.2 c 0,0.2209 -0.1791,0.4 -0.4,0.4 z m 40,-8 H 60 V 76.4 C 60,76.1791 59.8209,76 59.6,76 H 56.4 C 56.1791,76 56,75.8209 56,75.6 V 72 h 3.6 C 59.8209,72 60,71.8209 60,71.6 V 68.4 C 60,68.1791 59.8209,68 59.6,68 H 56 V 64.4 C 56,64.1791 55.8209,64 55.6,64 H 48.4 C 48.1791,64 48,63.8209 48,63.6 V 60.4 C 48,60.1791 47.8209,60 47.6,60 H 40 V 56.4 C 40,56.1791 40.1791,56 40.4,56 h 3.2 C 43.8209,56 44,55.8209 44,55.6 V 52.4 C 44,52.1791 43.8209,52 43.6,52 H 40.4 C 40.1791,52 40,51.8209 40,51.6 V 48.4 C 40,48.1791 40.1791,48 40.4,48 H 48 v 3.6 c 0,0.2209 0.1791,0.4 0.4,0.4 h 7.2 c 0.2209,0 0.4,0.1791 0.4,0.4 v 3.2 C 56,55.8209 55.8209,56 55.6,56 H 52.4 C 52.1791,56 52,56.1791 52,56.4 v 3.2 c 0,0.2209 0.1791,0.4 0.4,0.4 h 7.2 C 59.8209,60 60,59.8209 60,59.6 V 48.4 C 60,48.1791 59.8209,48 59.6,48 H 56.4 C 56.1791,48 56,47.8209 56,47.6 V 36.4 C 56,36.1791 55.8209,36 55.6,36 H 52.4 C 52.1791,36 52,36.1791 52,36.4 V 47.6 C 52,47.8209 51.8209,48 51.6,48 H 48 V 32.4 C 48,32.1791 48.1791,32 48.4,32 h 3.2 C 51.8209,32 52,31.8209 52,31.6 V 28 h 3.6 c 0.2209,0 0.4,0.1791 0.4,0.4 v 3.2 c 0,0.2209 0.1791,0.4 0.4,0.4 h 3.2 c 0.2209,0 0.4,0.1791 0.4,0.4 v 11.2 c 0,0.2209 0.1791,0.4 0.4,0.4 H 64 v 3.6 c 0,0.2209 0.1791,0.4 0.4,0.4 H 68 v 3.6 c 0,0.2209 0.1791,0.4 0.4,0.4 H 72 v 3.6 c 0,0.2209 0.1791,0.4 0.4,0.4 H 76 v 3.6 C 76,59.8209 75.8209,60 75.6,60 H 72.4 C 72.1791,60 72,60.1791 72,60.4 V 64 H 64.4 C 64.1791,64 64,64.1791 64,64.4 V 80 Z m -44,0 H 16.4 C 16.1791,80 16,79.8209 16,79.6 V 76.4 C 16,76.1791 16.1791,76 16.4,76 H 20 v 4 z m 56,-4 H 68.4 C 68.1791,76 68,75.8209 68,75.6 V 68.4 C 68,68.1791 68.1791,68 68.4,68 h 3.2 C 71.8209,68 72,67.8209 72,67.6 V 64 h 3.6 c 0.2209,0 0.4,0.1791 0.4,0.4 v 3.2 c 0,0.2209 0.1791,0.4 0.4,0.4 h 3.2 c 0.2209,0 0.4,0.1791 0.4,0.4 V 72 H 76.4 C 76.1791,72 76,72.1791 76,72.4 v 3.2 c 0,0.2209 -0.1791,0.4 -0.4,0.4 z m -52,0 H 20 V 72.4 C 20,72.1791 20.1791,72 20.4,72 H 24 v 3.6 c 0,0.2209 -0.1791,0.4 -0.4,0.4 z m 32,-4 H 52 V 68.4 C 52,68.1791 52.1791,68 52.4,68 H 56 v 4 z m 76,-4 h -7.2 C 124.179,68 124,67.8209 124,67.6 V 64.4 C 124,64.1791 123.821,64 123.6,64 H 120 v -3.6 c 0,-0.2209 -0.179,-0.4 -0.4,-0.4 h -3.2 c -0.221,0 -0.4,0.1791 -0.4,0.4 V 64 h -3.6 c -0.221,0 -0.4,-0.1791 -0.4,-0.4 v -7.2 c 0,-0.2209 0.179,-0.4 0.4,-0.4 h 3.2 c 0.221,0 0.4,-0.1791 0.4,-0.4 V 52 h 4 v 3.6 c 0,0.2209 0.179,0.4 0.4,0.4 h 7.6 v 7.6 c 0,0.2209 0.179,0.4 0.4,0.4 h 3.2 c 0.221,0 0.4,0.1791 0.4,0.4 v 3.2 c 0,0.2209 -0.179,0.4 -0.4,0.4 z m -12,0 h -3.2 C 116.179,68 116,67.8209 116,67.6 V 64 h 4 v 3.6 c 0,0.2209 -0.179,0.4 -0.4,0.4 z m -76,0 H 40 v -4 h 3.6 c 0.2209,0 0.4,0.1791 0.4,0.4 v 3.2 c 0,0.2209 -0.1791,0.4 -0.4,0.4 z m -20,0 H 20.4 C 20.1791,68 20,67.8209 20,67.6 V 64.4 C 20,64.1791 20.1791,64 20.4,64 H 24 v 4 z m 108,-12 H 128 v -4 h 3.6 c 0.221,0 0.4,0.1791 0.4,0.4 v 3.2 c 0,0.2209 -0.179,0.4 -0.4,0.4 z m -24,0 H 104 v -7.6 c 0,-0.2209 0.179,-0.4 0.4,-0.4 h 11.2 c 0.221,0 0.4,0.1791 0.4,0.4 V 52 h -7.6 c -0.221,0 -0.4,0.1791 -0.4,0.4 v 3.2 c 0,0.2209 -0.179,0.4 -0.4,0.4 z m -72,0 H 32 v -4 h 3.6 c 0.2209,0 0.4,0.1791 0.4,0.4 v 3.2 c 0,0.2209 -0.1791,0.4 -0.4,0.4 z m -16,0 H 16.4 C 16.1791,56 16,55.8209 16,55.6 V 48.4 C 16,48.1791 16.1791,48 16.4,48 h 7.2 c 0.2209,0 0.4,0.1791 0.4,0.4 V 52 H 20.4 C 20.1791,52 20,52.1791 20,52.4 v 3.2 c 0,0.2209 -0.1791,0.4 -0.4,0.4 z m 108,-4 H 120 v -3.6 c 0,-0.2209 0.179,-0.4 0.4,-0.4 h 7.2 c 0.221,0 0.4,0.1791 0.4,0.4 V 52 Z m -52,0 H 72 v -4 h 3.6 c 0.2209,0 0.4,0.1791 0.4,0.4 V 52 Z m -44,0 H 28 V 48.4 C 28,48.1791 28.1791,48 28.4,48 h 3.2 c 0.2209,0 0.4,0.1791 0.4,0.4 V 52 Z m 40,-4 H 68 v -4 h 4 v 4 z m 60,-4 H 104.4 C 104.179,44 104,43.8209 104,43.6 V 16.4 c 0,-0.2209 0.179,-0.4 0.4,-0.4 h 27.2 c 0.221,0 0.4,0.1791 0.4,0.4 v 27.2 c 0,0.2209 -0.179,0.4 -0.4,0.4 z M 88,43.6 V 40.4 C 88,40.1791 87.8209,40 87.6,40 H 84.4 C 84.1791,40 84,40.1791 84,40.4 v 3.2 c 0,0.2209 0.1791,0.4 0.4,0.4 h 3.2 C 87.8209,44 88,43.8209 88,43.6 Z M 75.6,44 H 72 V 40.4 C 72,40.1791 72.1791,40 72.4,40 H 76 v 3.6 c 0,0.2209 -0.1791,0.4 -0.4,0.4 z m -8,0 H 64 V 28.4 C 64,28.1791 64.1791,28 64.4,28 H 72 v 3.6 C 72,31.8209 71.8209,32 71.6,32 H 68.4 C 68.1791,32 68,32.1791 68,32.4 V 44 Z m -24,0 H 16.4 C 16.1791,44 16,43.8209 16,43.6 V 16.4 C 16,16.1791 16.1791,16 16.4,16 h 27.2 c 0.2209,0 0.4,0.1791 0.4,0.4 V 43.6 C 44,43.8209 43.8209,44 43.6,44 Z M 128,39.6 V 20.4 c 0,-0.2209 -0.179,-0.4 -0.4,-0.4 h -19.2 c -0.221,0 -0.4,0.1791 -0.4,0.4 v 19.2 c 0,0.2209 0.179,0.4 0.4,0.4 h 19.2 c 0.221,0 0.4,-0.1791 0.4,-0.4 z m -88,0 V 20.4 C 40,20.1791 39.8209,20 39.6,20 H 20.4 C 20.1791,20 20,20.1791 20,20.4 v 19.2 c 0,0.2209 0.1791,0.4 0.4,0.4 H 39.6 C 39.8209,40 40,39.8209 40,39.6 Z M 123.6,36 H 112.4 C 112.179,36 112,35.8209 112,35.6 V 24.4 c 0,-0.2209 0.179,-0.4 0.4,-0.4 h 11.2 c 0.221,0 0.4,0.1791 0.4,0.4 v 11.2 c 0,0.2209 -0.179,0.4 -0.4,0.4 z m -88,0 H 24.4 C 24.1791,36 24,35.8209 24,35.6 V 24.4 C 24,24.1791 24.1791,24 24.4,24 h 11.2 c 0.2209,0 0.4,0.1791 0.4,0.4 v 11.2 c 0,0.2209 -0.1791,0.4 -0.4,0.4 z m 44,-8 H 72 V 24.4 C 72,24.1791 72.1791,24 72.4,24 H 80 v 3.6 c 0,0.2209 -0.1791,0.4 -0.4,0.4 z m -28,0 H 48.4 C 48.1791,28 48,27.8209 48,27.6 V 20.4 C 48,20.1791 48.1791,20 48.4,20 h 7.2 C 55.8209,20 56,19.8209 56,19.6 V 16.4 C 56,16.1791 56.1791,16 56.4,16 h 3.2 c 0.2209,0 0.4,0.1791 0.4,0.4 v 7.2 C 60,23.8209 59.8209,24 59.6,24 H 52.4 C 52.1791,24 52,24.1791 52,24.4 V 28 Z m 48,-4 H 96 V 20.4 C 96,20.1791 96.1791,20 96.4,20 h 3.2 c 0.2209,0 0.4,0.1791 0.4,0.4 v 3.2 c 0,0.2209 -0.1791,0.4 -0.4,0.4 z m -16,0 H 80 V 20.4 C 80,20.1791 80.1791,20 80.4,20 h 3.2 c 0.2209,0 0.4,0.1791 0.4,0.4 V 24 Z m -8,-4 H 72.4 C 72.1791,20 72,19.8209 72,19.6 V 16.4 C 72,16.1791 72.1791,16 72.4,16 h 3.2 c 0.2209,0 0.4,0.1791 0.4,0.4 v 3.2 c 0,0.2209 -0.1791,0.4 -0.4,0.4 z"
           id="path1" />
      </g>
    </g>
    <text
       xml:space="preserve"
       style="font-size:34.2194px;font-family:'Noto Sans';-inkscape-font-specification:'Noto Sans';text-align:center;text-anchor:middle;fill:#57e389;stroke-width:5.729;stroke-linecap:round;stroke-linejoin:round"
       x="108.21439"
       y="241.44566"
       id="text2"><tspan
         sodipodi:role="line"
         id="tspan2"
         style="font-style:normal;font-variant:normal;font-weight:bold;font-stretch:normal;font-size:34.2194px;font-family:'Noto Sans';-inkscape-font-specification:'Noto Sans Bold';fill:#000000;stroke-width:5.729"
         x="108.21439"
         y="241.44566">EWRWC</tspan></text>
  </g>
</svg>
