<?xml version="1.0" encoding="UTF-8" standalone="no"?>
<!-- Created with Inkscape (http://www.inkscape.org/) -->

<svg
   width="210mm"
   height="297mm"
   viewBox="0 0 210 297"
   version="1.1"
   id="svg1"
   inkscape:version="1.3.2 (091e20ef0f, 2023-11-25, custom)"
   sodipodi:docname="logo_SPSE.svg"
   xmlns:inkscape="http://www.inkscape.org/namespaces/inkscape"
   xmlns:sodipodi="http://sodipodi.sourceforge.net/DTD/sodipodi-0.dtd"
   xmlns="http://www.w3.org/2000/svg"
   xmlns:svg="http://www.w3.org/2000/svg">
  <sodipodi:namedview
     id="namedview1"
     pagecolor="#ffffff"
     bordercolor="#000000"
     borderopacity="0.25"
     inkscape:showpageshadow="2"
     inkscape:pageopacity="0.0"
     inkscape:pagecheckerboard="0"
     inkscape:deskcolor="#d1d1d1"
     inkscape:document-units="mm"
     inkscape:zoom="1.6186799"
     inkscape:cx="386.426"
     inkscape:cy="519.86807"
     inkscape:window-width="3840"
     inkscape:window-height="2088"
     inkscape:window-x="2048"
     inkscape:window-y="0"
     inkscape:window-maximized="1"
     inkscape:current-layer="layer1" />
  <defs
     id="defs1">
    <rect
       x="100.21519"
       y="743.5529"
       width="649.40902"
       height="287.08667"
       id="rect1" />
    <inkscape:path-effect
       effect="copy_rotate"
       starting_point="161.11823,158.89762"
       origin="103.5,158.9"
       id="path-effect40781"
       is_visible="true"
       lpeversion="1.2"
       lpesatellites=""
       method="normal"
       num_copies="2"
       starting_angle="0"
       rotation_angle="180"
       gap="-0.01"
       copies_to_360="true"
       mirror_copies="false"
       split_items="false"
       link_styles="false" />
  </defs>
  <g
     inkscape:label="Vrstva 1"
     inkscape:groupmode="layer"
     id="layer1">
    <path
       id="path40776"
       style="fill:none;stroke:#57e389;stroke-width:6;stroke-linejoin:round;stroke-dasharray:none"
       d="m 152.2258,106.98386 c 0,3.62548 -2.93903,6.56451 -6.56451,6.56451 -3.62548,0 -6.56452,-2.93903 -6.56452,-6.56451 0,-3.62549 2.93903,-6.56452 6.56452,-6.56452 3.62548,0 6.56451,2.93904 6.56451,6.56452 z M 140.73065,103.2664 C 117.66633,87.688251 87.356229,88.058286 64.679091,104.19486 42.001954,120.33144 31.71921,148.84643 38.878496,175.74227 l -0.06906,0.0461 41.971807,-11.20184 0.14698,-47.40003 23.330457,43.1092 M 54.7742,210.81614 c 0,-3.62548 2.93903,-6.56451 6.56451,-6.56451 3.62548,0 6.56452,2.93903 6.56452,6.56451 0,3.62549 -2.93903,6.56452 -6.56452,6.56452 -3.62548,0 -6.56451,-2.93904 -6.56451,-6.56452 z m 11.49515,3.71746 c 23.06432,15.57815 53.37442,15.20811 76.05156,-0.92846 22.67714,-16.13658 32.95988,-44.65157 25.80059,-71.54741 l 0.0691,-0.0461 -41.9718,11.20184 -0.14698,47.40003 -23.33046,-43.1092"
       sodipodi:nodetypes="ssssscsccccc"
       inkscape:path-effect="#path-effect40781"
       inkscape:original-d="m 152.2258,106.98386 c 0,3.62548 -2.93903,6.56451 -6.56451,6.56451 -3.62548,0 -6.56452,-2.93903 -6.56452,-6.56451 0,-3.62549 2.93903,-6.56452 6.56452,-6.56452 3.62548,0 6.56451,2.93904 6.56451,6.56452 z M 140.73065,103.2664 C 117.66633,87.688251 87.356229,88.058286 64.679091,104.19486 42.001954,120.33144 31.71921,148.84643 38.878496,175.74227 l -0.06906,0.0461 41.971807,-11.20184 0.14698,-47.40003 23.330457,43.1092"
       class="UnoptimicedTransforms"
       transform="translate(1.7863837,-60.405698)" />
    <text
       xml:space="preserve"
       transform="matrix(0.26458333,0,0,0.26458333,-6.974346,-15.772989)"
       id="text1"
       style="font-size:120px;white-space:pre;shape-inside:url(#rect1);fill:none;stroke:#ff0000;stroke-width:21.6529;stroke-linecap:round;stroke-linejoin:round"
       x="570.12012"
       y="0"><tspan
         x="100.85986"
         y="852.73776"
         id="tspan6"><tspan
           style="font-weight:bold;font-family:'Noto Sans';-inkscape-font-specification:'Noto Sans Bold';text-align:center;text-anchor:middle;fill:#57e389;stroke:none"
           id="tspan1">VOŠ a SPŠE</tspan><tspan
           style="font-family:'Noto Sans';-inkscape-font-specification:'Noto Sans';text-align:center;text-anchor:middle;fill:#57e389;stroke:none"
           id="tspan3">
</tspan></tspan><tspan
         x="243.89991"
         y="1002.7378"
         id="tspan8"><tspan
           style="font-family:'Noto Sans';-inkscape-font-specification:'Noto Sans';text-align:center;text-anchor:middle;fill:#57e389;stroke:none"
           id="tspan7">PLZEŇ</tspan></tspan></text>
  </g>
</svg>
